<?xml version="1.0" encoding="UTF-8" standalone="no"?>
<!-- Generator: Adobe Illustrator 19.2.0, SVG Export Plug-In . SVG Version: 6.00 Build 0)  -->

<svg
   xmlns:dc="http://purl.org/dc/elements/1.1/"
   xmlns:cc="http://creativecommons.org/ns#"
   xmlns:rdf="http://www.w3.org/1999/02/22-rdf-syntax-ns#"
   xmlns:svg="http://www.w3.org/2000/svg"
   xmlns="http://www.w3.org/2000/svg"
   xmlns:sodipodi="http://sodipodi.sourceforge.net/DTD/sodipodi-0.dtd"
   xmlns:inkscape="http://www.inkscape.org/namespaces/inkscape"
   version="1.0"
   id="Ebene_1"
   x="0px"
   y="0px"
   viewBox="0 0 500.26097 365.7403"
   xml:space="preserve"
   inkscape:version="0.91 r13725"
   sodipodi:docname="RIKA_firenet_Logo.svg"
   width="500.26099"
   height="365.7403"><metadata
     id="metadata47"><rdf:RDF><cc:Work
         rdf:about=""><dc:format>image/svg+xml</dc:format><dc:type
           rdf:resource="http://purl.org/dc/dcmitype/StillImage" /><dc:title></dc:title></cc:Work></rdf:RDF></metadata><defs
     id="defs45" /><sodipodi:namedview
     pagecolor="#ffffff"
     bordercolor="#666666"
     borderopacity="1"
     objecttolerance="10"
     gridtolerance="10"
     guidetolerance="10"
     inkscape:pageopacity="0"
     inkscape:pageshadow="2"
     inkscape:window-width="1920"
     inkscape:window-height="1017"
     id="namedview43"
     showgrid="false"
     fit-margin-top="10"
     fit-margin-left="10"
     fit-margin-right="10"
     fit-margin-bottom="10"
     inkscape:zoom="0.39643878"
     inkscape:cx="250.21797"
     inkscape:cy="148.69031"
     inkscape:window-x="-8"
     inkscape:window-y="-8"
     inkscape:window-maximized="1"
     inkscape:current-layer="Ebene_1" /><style
     type="text/css"
     id="style3">
	.st0{fill:#CA5626;}
	.st1{fill:#2D2D2E;}
	.st2{fill:none;stroke:#2D2D2E;stroke-width:4.0806;stroke-miterlimit:10;}
</style><g
     id="g5"
     transform="translate(-170.73204,-80.6)"><g
       id="g7"><path
         class="st0"
         d="m 286.7,399.1 -4.9,0 0,-45.3 -29.8,0 0,45.3 -5,0 0,-45.3 -9.1,0 0,-4.3 9.1,0 0,-8.8 c 0,-10 6,-16.4 15.8,-16.4 3.7,0 6.7,0.9 9.4,2.7 l -1.6,3.9 c -2.2,-1.4 -4.7,-2.1 -7.5,-2.1 -7,0 -11.2,4.8 -11.2,12 l 0,8.8 34.7,0 0,49.5 z m 1.4,-64.7 c 0,2.1 -1.6,3.8 -3.9,3.8 -2.3,0 -4,-1.6 -4,-3.8 0,-2.1 1.6,-3.9 4,-3.9 2.3,0 3.9,1.7 3.9,3.9 z"
         id="path9"
         inkscape:connector-curvature="0"
         style="fill:#ca5626" /><path
         class="st0"
         d="m 341.8,349.4 -0.5,4.7 c -1,-0.2 -2,-0.2 -2.9,-0.2 -13.7,0 -21.1,11.4 -21.1,24.5 l 0,20.7 -5,0 0,-49.6 5,0 0,13.9 c 4,-8.2 11.3,-14.3 21.1,-14.3 1.1,0 2,0 3.4,0.3 z"
         id="path11"
         inkscape:connector-curvature="0"
         style="fill:#ca5626" /><path
         class="st0"
         d="m 401.6,374.7 -44.9,0 c 0.2,13.3 10.2,21.1 20.2,21.1 8.6,0 15.7,-3.9 19.3,-12.7 l 4.4,1 c -3.8,10.4 -12.3,16 -23.6,16 -12.7,0 -25.1,-9.7 -25.1,-25.8 0,-16.1 12.3,-26.2 25.7,-26.2 13.6,0 23.6,9.9 24.1,24.6 l 0,2 z m -44.8,-3.8 39.8,0 c -1.2,-11.6 -9.1,-18.2 -19.2,-18.2 -9.4,0 -19.1,6.7 -20.6,18.2 z"
         id="path13"
         inkscape:connector-curvature="0"
         style="fill:#ca5626" /></g><g
       id="g15"><path
         class="st1"
         d="m 473.2,369.1 0,29.9 -7.7,0 0,-28.5 c 0,-9.3 -5.6,-15.6 -13.9,-15.6 -10.4,0 -17.3,7.1 -17.3,20.1 l 0,24 -7.7,0 0,-50 7.7,0 0,8.3 c 4.1,-6.1 10.4,-9.5 18.9,-9.5 12,0 20,8.7 20,21.3 z"
         id="path17"
         inkscape:connector-curvature="0"
         style="fill:#2d2d2e" /><path
         class="st1"
         d="m 540.8,375.6 -42.9,0 c 0.7,11.3 9.2,18 17.9,18 7.1,0 13.5,-2.7 17,-10.8 l 6.9,1.6 c -4,10.4 -12.7,15.9 -23.9,15.9 -13.3,0 -25.4,-10.2 -25.4,-26.2 0,-16 12.1,-26.4 25.9,-26.4 13.5,0 24,10 24.5,25 l 0,2.9 z m -42.6,-5.8 34.8,0 c -1.4,-9.8 -8.4,-15.2 -16.7,-15.2 -8.2,0 -16.6,5.4 -18.1,15.2 z"
         id="path19"
         inkscape:connector-curvature="0"
         style="fill:#2d2d2e" /><path
         class="st1"
         d="m 589.2,396.4 c -4.1,2.8 -7.5,4 -11.6,4 -9.9,0 -16.5,-5.9 -16.5,-16.9 l 0,-27.9 -10.9,0 0,-6.5 10.9,0 0,-15.9 7.8,0 0,15.9 17.9,0 0,6.5 -17.9,0 0,27.4 c 0,6.5 3.7,10.1 9.2,10.1 2.8,0 6,-1.2 8.5,-3 l 2.6,6.3 z"
         id="path21"
         inkscape:connector-curvature="0"
         style="fill:#2d2d2e" /></g><g
       id="g23"><path
         class="st1"
         d="m 447.5,277 c 0,0 -6.8,-0.2 -6.8,-0.2 l -3.3,0 c 0,0 -1.7,0.1 -1.8,0.1 0,0 -0.2,0 -0.4,0.1 l -4.6,0.2 9.7,-30.1 9,30.1 -1.8,-0.2 0,0 z m -67.2,-39 -17.2,24.8 0,-21.6 c 0,0 0.3,-7 0.3,-7 l 0,-0.7 c 0,0 0.2,-2 0.4,-3.3 l -21.5,0 c 0.4,2.9 0.6,6.4 0.6,11 l 0,55.7 c 0,4.5 -0.2,8 -0.6,11 l 21.5,0 c 0,0 0,-0.1 0,-0.1 0,0 -0.3,-2 -0.3,-2.1 l -0.3,-8.8 0,-23.9 22.8,28.7 c 1.7,2.1 3.1,4.1 4.3,6.2 l 30.8,0 c 0.3,-1.2 1.2,-4.9 1.2,-4.9 0,0 0.2,-0.8 0.3,-0.8 l 0.4,-1.1 c 0,0 0.6,-2.1 0.6,-2.2 0,0 0.4,-1.1 0.4,-1 l 2.3,-7.2 0.2,-0.7 13.5,-0.2 12.9,0.2 c 0,0 2.2,7.2 2.2,7.3 2.2,7.4 2.3,7.8 2.8,10.6 l 23.1,0 c -0.8,-1.3 -1.3,-2.6 -2.2,-4.6 l 0,0 -5.3,-13 c 0,0 -23,-58.8 -23.5,-60 l -18.7,0 c -0.7,2.7 -1.6,4.9 -4.5,12 l -1.8,4.3 -19.7,48.9 -26.3,-29.2 c 0,0 20.9,-24.8 20.9,-24.8 l 3.2,-3.6 4.2,-4.8 c 0,0 1.6,-1.6 2.9,-2.9 l -24.6,0 c -0.4,0.7 -1.5,2.4 -1.5,2.4 0,0 -1,1.6 -1.1,1.7 l -2.7,3.7 0,0 z"
         id="path25"
         inkscape:connector-curvature="0"
         style="fill:#2d2d2e" /><path
         class="st1"
         d="m 333.2,305.6 -0.3,-8.8 0,-55.7 0.3,-7 0,0 0,0 0,0 0,-0.6 c 0,0 0.2,-2.1 0.4,-3.3 l -11.2,0 0,0 -11.3,0 c 0.1,1.3 0.4,3.3 0.4,3.3 l 0,0.6 0,0 0,0 0,0 0.3,7 0,55.7 -0.3,8.8 c 0,0.1 -0.3,2.1 -0.3,2.1 0,0 0,0.1 0,0.1 l 11.2,0 0,0 11.2,0 c 0,0 0,-0.1 0,-0.1 0,0 -0.4,-2 -0.4,-2.1 l 0,0 z"
         id="path27"
         inkscape:connector-curvature="0"
         style="fill:#2d2d2e" /><path
         class="st1"
         d="m 266.8,262.9 -4.5,0 0,-19.6 -0.1,-1.1 1.1,0.1 c 0,0 1,0.1 1,0.1 l 3.3,0 c 1.3,0.1 4.6,0.3 6.7,1.1 3.4,1.2 5.5,4.5 5.5,8.7 -0.1,6.9 -4.7,10.7 -13,10.7 l 0,0 z m 37.2,40.3 0,0 -3.2,-7.9 -5.1,-14.2 c -2.1,-5.9 -6.1,-9.3 -13.4,-11.3 l -3.2,-0.9 3.2,-1 c 11.4,-3.4 16.7,-9.1 16.7,-17.8 0,-7.3 -3.1,-12.9 -9,-16.3 -4.7,-2.7 -9.2,-3.6 -18.6,-3.6 0,0 -27.5,0 -29.6,0 0.4,2.9 0.6,6.4 0.6,11 l 0,55.7 c 0,4.6 -0.2,8 -0.6,11 l 21,0 c -0.1,-0.7 -0.2,-2.2 -0.2,-2.1 -0.2,-2.4 -0.4,-5.6 -0.4,-8.8 l 0,-21.5 4,0 c 6.3,0 8.1,2.5 11,11.6 0,0 4,11.8 4,11.8 1.5,4.7 2.2,6.8 2.6,9 l 14.8,0 6,0 1.4,0 c -0.5,-1.4 -1.1,-2.7 -2,-4.7 l 0,0 z"
         id="path29"
         inkscape:connector-curvature="0"
         style="fill:#2d2d2e" /></g><g
       id="g31"><path
         class="st0"
         d="m 522.4,301.7 c -18.3,-40.2 14.8,-54.9 -1.5,-86.7 -1.3,-2.5 -2.4,-5 -3.4,-7.4 -2.5,23.5 -22.2,38 -16.4,69.8 2.2,12.5 9.7,23.1 18.1,30.4 l 4.8,0 2.1,0 c -1.6,-2.2 -2.8,-4.3 -3.7,-6.1 z"
         id="path33"
         inkscape:connector-curvature="0"
         style="fill:#ca5626" /><path
         class="st0"
         d="m 532.2,210.1 c 1.5,11.5 10.5,22.8 11.1,26.7 -3.4,-40.7 34.2,-68.2 45.9,-92.5 12.3,-25.1 2.9,-44.5 -16,-53.7 4.9,4.7 9.2,10.4 9.5,17.5 2.3,47.4 -57,51.4 -50.5,102 z"
         id="path35"
         inkscape:connector-curvature="0"
         style="fill:#ca5626" /><path
         class="st0"
         d="m 618.8,307.8 6.2,0 c 9.6,-11.4 34.4,-45.1 11.7,-70 -0.1,-0.1 -43.8,-39.9 -32.8,-89.8 -7,8.2 -13.9,20.9 -14.7,28.9 -5.6,57.5 45.4,62.7 37.5,114.4 -0.6,4.1 -3.5,10.6 -7.9,16.5 z"
         id="path37"
         inkscape:connector-curvature="0"
         style="fill:#ca5626" /></g><g
       id="g39"><path
         class="st2"
         d="m 475.3,188.4 -218.6,-0.2 c -13,0 -25.5,8.4 -27.8,18.6 l -45.8,208.5 c -2.2,10.2 6.6,18.6 19.6,18.6 l 407,0.4 c 13,0 25.5,-8.4 27.8,-18.6 L 659,317.6"
         id="path41"
         inkscape:connector-curvature="0"
         style="fill:none;stroke:#2d2d2e;stroke-width:4.08059978;stroke-miterlimit:10" /></g></g></svg>